<svg width="1400" height="920" viewBox="0 0 1400 920" fill="none" xmlns="http://www.w3.org/2000/svg">
  <rect width="1400" height="920" rx="40" fill="#08111f"/>
  <rect x="36" y="36" width="1328" height="848" rx="32" fill="#0D1728" stroke="rgba(255,255,255,0.08)"/>
  <rect x="72" y="74" width="1256" height="44" rx="22" fill="#121f34"/>
  <circle cx="104" cy="96" r="7" fill="#F87171" fill-opacity="0.8"/>
  <circle cx="130" cy="96" r="7" fill="#FBBF24" fill-opacity="0.8"/>
  <circle cx="156" cy="96" r="7" fill="#34D399" fill-opacity="0.8"/>
  <rect x="1120" y="83" width="150" height="24" rx="12" fill="#18263E"/>
  <rect x="96" y="160" width="520" height="18" rx="9" fill="#1F3555"/>
  <rect x="96" y="200" width="640" height="74" rx="24" fill="url(#headline)"/>
  <rect x="96" y="298" width="560" height="18" rx="9" fill="#8798B5" fill-opacity="0.5"/>
  <rect x="96" y="332" width="500" height="18" rx="9" fill="#8798B5" fill-opacity="0.35"/>
  <rect x="96" y="392" width="188" height="52" rx="26" fill="url(#buttonPrimary)"/>
  <rect x="302" y="392" width="188" height="52" rx="26" fill="#142135" stroke="rgba(255,255,255,0.10)"/>
  <rect x="96" y="486" width="180" height="40" rx="20" fill="#111D31" stroke="rgba(255,255,255,0.10)"/>
  <rect x="294" y="486" width="170" height="40" rx="20" fill="#111D31" stroke="rgba(255,255,255,0.10)"/>
  <rect x="482" y="486" width="162" height="40" rx="20" fill="#111D31" stroke="rgba(255,255,255,0.10)"/>
  <rect x="662" y="486" width="190" height="40" rx="20" fill="#241A0D" stroke="rgba(235,192,93,0.18)"/>
  <rect x="96" y="588" width="212" height="124" rx="24" fill="#0F1B2D" stroke="rgba(255,255,255,0.08)"/>
  <rect x="330" y="588" width="212" height="124" rx="24" fill="#0F1B2D" stroke="rgba(255,255,255,0.08)"/>
  <rect x="564" y="588" width="212" height="124" rx="24" fill="#0F1B2D" stroke="rgba(255,255,255,0.08)"/>
  <rect x="828" y="166" width="430" height="510" rx="32" fill="#0E1627" stroke="rgba(255,255,255,0.08)"/>
  <rect x="860" y="198" width="366" height="206" rx="24" fill="url(#previewGlow)"/>
  <rect x="892" y="232" width="190" height="16" rx="8" fill="#E7F1FF" fill-opacity="0.7"/>
  <rect x="892" y="266" width="248" height="16" rx="8" fill="#DDE8F9" fill-opacity="0.38"/>
  <rect x="892" y="318" width="130" height="44" rx="18" fill="url(#buttonPrimary)"/>
  <rect x="1040" y="318" width="138" height="44" rx="18" fill="#121F34" stroke="rgba(255,255,255,0.10)"/>
  <rect x="860" y="438" width="171" height="202" rx="24" fill="#111D31" stroke="rgba(255,255,255,0.08)"/>
  <rect x="1055" y="438" width="171" height="202" rx="24" fill="#111D31" stroke="rgba(255,255,255,0.08)"/>
  <rect x="1016" y="538" width="214" height="248" rx="34" transform="rotate(7 1016 538)" fill="#121F34" stroke="rgba(255,255,255,0.10)"/>
  <rect x="1038" y="567" width="170" height="10" rx="5" transform="rotate(7 1038 567)" fill="#E9F0FB" fill-opacity="0.72"/>
  <rect x="1042" y="593" width="120" height="10" rx="5" transform="rotate(7 1042 593)" fill="#E9F0FB" fill-opacity="0.38"/>
  <rect x="1047" y="639" width="146" height="138" rx="28" transform="rotate(7 1047 639)" fill="#18263E"/>
  <rect x="80" y="760" width="1240" height="92" rx="28" fill="#0C1627" stroke="rgba(255,255,255,0.08)"/>
  <circle cx="1130" cy="122" r="160" fill="#0F3B63" fill-opacity="0.22"/>
  <circle cx="1130" cy="122" r="100" fill="#3B82F6" fill-opacity="0.10"/>
  <circle cx="978" cy="230" r="220" fill="#06B6D4" fill-opacity="0.08"/>
  <circle cx="1190" cy="336" r="120" fill="#EBC05D" fill-opacity="0.08"/>
  <defs>
    <linearGradient id="headline" x1="96" y1="200" x2="736" y2="274" gradientUnits="userSpaceOnUse">
      <stop stop-color="#F9FAFB"/>
      <stop offset="0.55" stop-color="#FFF1C9"/>
      <stop offset="1" stop-color="#EBC05D"/>
    </linearGradient>
    <linearGradient id="buttonPrimary" x1="96" y1="392" x2="284" y2="444" gradientUnits="userSpaceOnUse">
      <stop stop-color="#EBC05D"/>
      <stop offset="1" stop-color="#F3CF74"/>
    </linearGradient>
    <linearGradient id="previewGlow" x1="860" y1="198" x2="1226" y2="404" gradientUnits="userSpaceOnUse">
      <stop stop-color="#122443"/>
      <stop offset="0.56" stop-color="#163D63"/>
      <stop offset="1" stop-color="#1E6AA0"/>
    </linearGradient>
  </defs>
</svg>
